<?xml version="1.0" encoding="UTF-8"?>
<svg id="Layer_1" data-name="Layer 1" xmlns="http://www.w3.org/2000/svg" viewBox="0 0 160 160">
  <defs>
    <style>
      .cls-1 {
        fill: #fff;
      }
    </style>
  </defs>
  <path d="M47.64-.71c.96.78.56-1.12,1.19-.84.25.11-.02.94.53.99,2.5.22,5.33.2,7.78.27,10.11.31,20.18-.01,30.04-.3,5.59-.16,14.2.64,19.3-.6.13-.03.06-.7.3-.82.13-.06.45.47.64.4.09-.03-.1-1.02.16-.9,1.88.92-1.03,1.53.55.6,1.47-.86,1.26.16,2.21.24.21.02.02-.86.27-.84s.06.84.26.86c3.78.34,26.95-1.47,28.01.1.1.15-.89,2.68,1.27,2.85.42.03.25-1.62,2.1-.47.34.21.36,1.22.67,1.35.81.33,2.3-1.67,3,1.46-.59-2.33,1.19-3.17.97-1.65-.08.55-.52-.57-.55,0-.12,2.17,1.53,2.61,1.11-.24.87,2.96,1.71.99,2.5,1.63.09.07.9,3.02.81,3.09-.61.48-3.66.15-4.51.99-1.38,1.38.78.41,1.47.43.27,1.46-1.9,1.49-.83,2.13.89.54,2.21-1.37,2.92-1.67.53-.22,1.14.43,1.38.35.32-.1.29-1.23.52-1.29.86-.24.63,2.13.7,2.37.01.04.43-.48.5-.39.15.21.17,1.16.48,1.32.58.3,1.64-1.64,1.77-1.41.07.12-.1,1.2.02,1.37.22.32,1.2-.15,1.36.06.12.16-.37,1.27-.27,1.41.52.75,3.1-1.8,3.46-1.76.24.03.51,1.13,1.1,1.32.15.05,1.03-2.06,2.33-.49-.73,2.56-1.1,1.25-1.47,1.55-1.49,1.18-1.72,1.26-3.23,2.01-.19.1-.24,1.12-.27,1.15-.19.18-.65-1.18-.82-.94-.05.08.08.99-.07,1.27-.81,1.52-.93-.55-1.02-.57-.51-.12-1.1.34-1.77.26-.08-.01-.75-2.11-1.01.23-.19,1.8,3.51.66,3.71.68.24.02.13.95.16.97.4.33.17-.94.45-.97.44-.05,3.98.1,2.45,1.91-.38-1.3-1.01-.15-1.99.64-.1.08.02,1.25-.63.78-.08-.05.15-.93-.14-.95-.27-.02,0,.88-.3.95-1.66.37-3.82.56-5.51.52-.48-.01-.4-.94-.52-.96-.57-.1-1.28,1.89-2,1.75-.67-.13-.88-1.36-1.18-1.3-.05.01.2.93-.81,1.21-2.25.62-4.43-.76-5.96-.74-.17,0-2.01,1.07-3.03,1.18-.37.04-1.85-1.34-1.5.47.24,1.26,2.18.48,2.82.73.2.08.2.92.78,1.09,1.16.33,2.89.12,4.11.31-.62,1.98-2.25-.13-3.31.47,1.91,2.57,4.47-.79,6.62,0l-.82.93c.86.53,2.6-.51,3.19-.4.13.02.08.72.31.87.16.1,2.12-.01,1.19,1.42-.21.33-2.36-.85-2.21,1.42l5.51-.94c.35,2.23-1.36,1.53-2.31,1.92-1.08.45-1.65,1.78-3.2.91.86,3.23,1.01,1.01,1.11.97.92-.44.19.77.54,1.17.1.12,2.4.38,2.49.23.08-.14.04-4.22.41,0l.96-1.89-.27,2.36c.88.81,1.12-1.21,1.51-.95.18.12.15,1.75.69.95.21-.3-.66-.44.08-.83,1.54-.82-.64,2.89,1.99.32,1.21,2.02,2.58.16,1.79,3.82-1.73-3.16-1.21-.15-1.53.04-.91.54-4.46-1.01-4.54,1.61-.04,1.34.63.37.8.74s-.07,1.7.03,1.86c.28.48,1.83-1.06.55,1.41,1.31-.06,1.37-2.76,2.07,0,1.51-3.23.07,3.47,1.51,1.42.16,2.26-1.64.58-1.66,2.14,0,.43.52,2.49.6,2.56.12.11,1.2-1.19,1.36,2.61.11,2.51-.32,2.56-.76,4.34-.08.31.27.96.19,1.09-.17.29-.97-1.26-.83.23,1.7.8,1.13,1.61.55,3.54l1.38.71c-.8-.32-1.44,1.07-1.1,2.13.03.09.71-1.1.55.23-.84.58-.9,4.12-.86,5.69.02.83.52.63.55.9.03.24-.33.98-.27,1.39.1.75,1.12-.44-.52,2.64.64-3.7-.22-1.73-.28-1.88-.12-.3.27-1.57-.27-1.42-.07,4.24-.91,2.06-1.1,2.35s-.62,5.79-1.38.95l-.17,1.47-2.59,1.59c1.31.69.34,3.63,2.04,2.47.36-.25.35-1.14.64-1.3,2.41-1.32.8,1.75.9,1.89.19.25,1.67-.25,1.93,0,.09.09-1,1.38,1.1.95-.91.24-1.5,1.71-1.66,1.88-.4.43-.16-1.03-.41-.94-.16.06-.5,1.05-1.09,1.19-1.87.46-.96-1.19-.98-1.44-.15-1.36-1.6,2.02,1.11,2.61l-1.38.47c.85,2.19.25,1.11,0,2.82l1.38.48-.82,1.4c.76-.62,1.11,1.41,1.24,1.41.07,0,1.31-3.2.96-.7-.12.89-1.52,1.29-1.65,1.89-.07.33.8.49.82.94.02.52-1.09,1.13-1.1,1.42-.05,1.26,1.07,1.47,1.11,1.88s-.4.09-.46.37c-.75,3.43-.24,3.52-.09,6.75.04.76-.39,2.37-.28,2.56.08.14.62-.63.93-.45,2.3,1.36-1.91,2.58-2.03,2.35s.26-1.58-.27-1.42c.19,1.84-1.19.23-1.38,1.4l3.03.96-.83,1.4c1.92-.45-.74,1.83.83,1.9-1.14.82.23,1.61,0,1.88-.13.16-2.39-.4-.37,1.82,1.21,1.32.84-.3.93-.37.68-.51.53.81.6.84.29.16.51-.39.72-.28.06.03-.02.93.45.88.93-.08,1.47-2.44,2.08-.54l-.83.95,2.2.48c-1.27,1.41-2.76,1.78-4.23,1.88-.24.02-.1-.99-.32-.94-.08.02-1.48,1.06-1.52,1.18-.03.1.91,1.6.97,1.65.09.08.72-1.53,1.79-.94-.58,1.62-1.81-.13-1.1,2.35,1.7-3.21,3.65,1.31,5.23,3.07-1.09,2.38-2.41-.26-3.3-1.65v1.89c-1.09.35-.14-1.28-.28-1.41-.21-.22-1.26.13-1.65,0l1.1,1.41-2.48.71h1.65c.74,1.01-.56.69-.55,1.64,0,.04.4-.03.43.12.55,2.61.15.54.81-.11.17-.17.03,1.64.69.94l-.83-2.82c.43-.11,2.96.88,2.48,1.88-.04.09-1.16-.52-1.35.05-.41,1.23.54,1.38-1.4,2.77,3.27-1.81,1.19.41,1.98,1.34.24.28.94-.09,1.21.54.17.38-.3,1.64-.16,1.91.05.09,1.28-.5,1.34-.57.08-.09.17-2.88,1.14-.84.22.46-1.5,2.52-1.64,2.6-1.12.59-3.74-.47-3.88-.24-.79,1.26,1.73,1.17,1.93,1.65-3.18.64-.41,1.42-.29,2.87.09,1.09-.79.19-.54,1.61.75-.16,2.24-.67,2.48,1.17-.46,1.49-.91-.49-1.1-.23-.25.35.12,3.46-1.49,2.39-.66-.44.78-3.6-2.18-2.28-1.14.51.09,1.02.1,1.13.1,2.67-1.14,2.2-2.23,2.54,1.45-2.76.09-1.33.27-2.59.04-.3,1.06-.27.55-1.19-.07-.12-.69,1.15-.54-.22-.09-1.44,2.06-2.2,1.65-3.07s-1.46.66-2.04.5c-.29-.08.03-2.03-1.54,1.38,2.22-.36.98.74,1.09,1.14.11.37.52.24.55.57.19,1.78-.1,4.7-1.09,1.6-1.39,2.32,1.73,5.31-1.1,2.83.44,2.94,2.44-.59,1.1,3.77-.14-3.3-2.36-.87-3.86-1.88-.03,1.81,1.53,1.01.82,3.3.02-.81-2.12-1.1-2.2-.94-.21.46.88,4.51-.56,6.13-1.07,1.2.26-1.96-.82-1.41-.21.47.02,1.78-.02,1.84-.35.51-4.49,2.05-5.21,2.16-4.49.73-9.77-.84-14.61-1.02-.6-.02-1.44,1.03-1.67.78-.12-.13.76-1.08-.42-1.16-1.05-.07-1.86,1.07-2.75,1.18-8.09.98-22.28,1.93-30.07.19-.74-.16-2.09-1.59-2.21-1.62-.23-.05-.08.97-.29.97-.34,0-.79-.54-1.35-.52-17.16.76-35.51,1.24-53.27,1.86-.21,0,.14-1.09-.53-.9-.16.05-.37,1.95-2.15.84-.25-.16-1.58-2.53-1.69-2.58-.3-.12-2.37.31-2.92.32l.82-2.36c-.97,1.79-3.67-1.62-3.59,1.89-.71-3.09-3.83-.3-4.69-.95-.04-.03.4-1-.16-1.37-.13-.08-2.06.33-2.73.19-.34-.07-.59-1.04-.87-1.1-.56-.13-1.37,1.54-1.47,1.34-.23-.46.24-2.1.72-2.26.45-.15,1.09.86,1.62.8.86-.09,2.81-1.11,3.85-1.16.49-.02.91.7,1.22.71.07,0-.11-.83.16-.92s-.09,1.02.54,1c.76-.03,1.19-1.26,1.96-1.46,1.09-.27,2.23.89,3.43-.02l-1.93-1.88,4.69-.48c.08-.1-.14-.58-.28-.71-.45-.45-7.67-.11-8.55,1.19l.27-1.88h-5.79s.83-1.41.83-1.41c-1.48-2.14-2.36,1.1-2.48.94-.04-.06.12-.99-.19-1.46-.71-1.09-1.11-.28-1.56-.43-.22-.07-.21-.96-.34-.97-.42-.02-1.5,1.56-2.06.97-.03-.03.3-.89.28-.93-.05-.09-1.32-.54-1.38-.47-.13.15.81,1.78-.27,1.4.13-1.47-.52-.4-.55-.46-.11-.16-.24-4.08-1.93-.48-1.32-4.68,1.53-3.03,1.64-3.3.09-.22-.07-1.22,0-1.42.46-1.07.67,1.69,1.24,1.42.27-.13.36-1.29.45-1.35.17-.12,1.78.88,2.05.8.68-.2.08-1.76.13-1.81.24-.28.88.47.99.44.17-.06.1-.91.12-.9.38.09,1.25,1.36,2.05,1.43.22.02.05-1.06.29-.97.17.06.4,1.01.69.94.03,0-.06-.86.18-.91.36-.08,2.25.5,2.03-.97-2.44.46-1.28-.85-1.38-.94-1.24-1.23-2.31,3.18-2.07.47-.55-.45-2.4.71-2.62.47-.05-.06.74-1.37-.4-.93-.6.23-.84,1.18-1.14,1.28-1.05.33-.9-1.12-2.45.06-.09.07-.58-.6-.69-.42-.1.16.22,2.97-1.93.23-.4-.5-.08-2.3-.82-1.63-.03.03.04.81-.04.84-.24.12-.55-.46-.65-.39-.34.24.33.77,0,.95-.46.24-.69-1.58-1.1-1.41-.52.22.13,2.27-1.79.46,1.67-3.42.28-1.14-.65-1.39-.2-.05-.02-1.19-.87-1.01-.52.11-.39.98-.59.99-.69.04-3.35-.32-2.15-2.36l4.27.94-1.1-1.17c-.11-1.93,5.46.16,6.06-.71.07-.1-.92-1.88-.55-2.83.04-.1,1.39.65,1.37-.71-.02-1.5-2.02.48-1.79-1.18.09-.63.95.65.69-.94l-1.93-.95c1.17.05,3.19.34,4.24-.07.67-.26-.19-1.61.58-1.35.34.12-.05,1.29.27,1.41.05.02.62-.7.97-.47.11-.88-.52-.15-.55-.7s.68.16.55-.7c-.42-.2-1.42-.34-1.75-.03-.45.43.19,1.81-.73,1.43,1.18-2-2.53-2.61-2.89-2.38s.05,1.46-.28,1.44c-.53-.03-.09-1.83-.14-1.88-.39-.43-7.63-1.9-8,0,.3-2-.92-1.52-1.38-.47.06-.53-.24-.94-.24-1.35,0-.14.65.22.51-.52l-2.48-.48c-.22-1.7.8-.54,1.09-.99.14-.22-.14-1.08.16-1.37.09-.09,1.98.38,2.06.49.12.14-.59,2.79,1.65,0,0,1.74,3.19,5.52,1.66,1.41l1.37-.23-1.37-.71.82-.95c-.47-1.63-1.77-2.13-.55-3.29l-5.79-.95c1.16-3.06-2.27.04-2.48-1.65-.05-.41.51-.16.56-.46.28-1.85-.58-.73-.84-1.49-.3-.86-.08-3.99-.56-5.1-.41-.97-4.29-2.68.56-3.1.28-1.76-1.08-.57-1.38-.95-.13-.17.45-.81.48-1.24.04-.58-.28-1.29-.2-1.59.04-.16,1.73.69,2.06.49s.04-1.25.14-1.43c.25-.42.76.74.96.74,1.13,0,2.57-.7,3.73-.73l-4.82-1.42c.08-2.63-.49.03-.56.03-.54.06-2.26-1.43-1.79-2.38.03-.07.7.08.97-.45.19-.38,1.54-11.91,1.24-4.28l.83-2.83v2.35c.36.85,1.8-3.32.27-3.29,2.63-.63.67,1.84.83,2.35.39,1.25,2.54,1.01,2.76-.93l.14,1.41c.1-1.13,1.45-2.25,1.49-2.41.16-.65-1.14-2.96.86-.89.39-1.08-1.08-1.41-.82-1.88.08-.15,1.73-.34,1.64-2.63,0-.22-2.11-2.72-2.05-.68.02-2.21-.65-.85-.69-.95-.71-1.84,3.19.25,1.1-2.83,1.57.37,1.55-5.84-.27-3.07l.55,1.17c-1.62.71-3.82,1.64-5.24-.46.41-.13,2.66-.31,2.76-.48.11-.21-.12-1.57.02-1.85.08-.16,2.11-.37,2.2-.5.06-.09-.55-1.69.46-2.27,1.31-.76,0,1.22.09,1.33.9,1.11,3.94-1.59,4.13-1.41.2.2-.17,1.8,1.8,1.45.69-.12.89-1.9.97-1.91.11-.02,1.59,1.61,1.64-.71.03-1.15-1.9-.28-2.06-.33s-.04-.77-.53-.89c-1.01-.25-6.21-.2-6.5-.43-.05-.04.53-1.25-.42-1.44-.48-.1-3.64.64-2.62,2.38-.92.46-.31-1.24-.7-1.44-.72-.38-1.86.34-2.61.5l1.1-1.88c-1.61.65-2.52,1.02-2.2-2.52.06-.62,1.16.41-.28-2.2l12.13-.47c.34-4.48.5-1.18.98-.99.55.22.89-1.33,1.5.51-.33-2.45,1.01-2.09,1.11-2.36.04-.11-.39-1.2-.28-1.41.12-.23,1.51-.18,1.87-.33s.33-1.03.37-1.04c.11-.05,1.25.79,2.03.76,1.63-.08,2.73-2.22,4.56-1.28.23-1.69-1.08-.71-1.65-.95.92-2.99.87.83,1.52-.94.82-2.25-3.2-.4-3.87-.42-.49-.02-.29-.95-.81-1.04-.86-.15-.7.99-.82.98-.38-.02-1.31-1.41-1.39-1.4-.24.03-.45,2.29-.97,1.4-.09-.15.8-1.61-1.53-1.44-.68.05-.94.97-1.36.99-.16,0-.13-.97-.3-.98-.73-.01-2.06.51-2.88.48l.55-1.89c.75-.49.51.92.55.95.23.17.54-1.04.82-.94.06.02-.13.95.14.94.07,0,1.19-.64,1.25-.69.32-.28-.04-1.16,0-1.19.58-.48,3.07,2.03,4.14.93.03-.03-.33-.88-.28-.94.11-.12,2.16.98,2.49.47,1.16-1.81-2.85-1.92-3.31-1.42l1.1-1.4c-1.04-.33-3.97-.42-4.33-2.03-1.11-5.04,1.44.12,1.9.32.97.41,2.77-2.02,3.81-1.12l-.55.93c.61-.54,1.91.13,2.28-.01.3-.12,1.4-3.29,1.03-3.53-.97-.65-2.92-.07-3.04-.23-.06-.08.04-2.19-.69-1.88-.12.05-.63,2.53-2.06,1.4-.08-.06.65-1.64-.98-1.67-1.02-.02-.29,2.81-1.88-.22-.05-.09.12-2.54-.6.01-.82.28.07-.98-.28-.96-.65.04-1.44.91-2.17.8-1.4-.21-3.36-3-4.31-.32-.73-2.53.66-4.32,1.65-2.36.16-2.4.95-.74,1.49-.91.19-.06.15-.9.28-.92.53-.11,4.02,1.41,3.19-.99,1.2,1.29,5.34,1.33,5.79-1.42l-6.45-.99c-1.42-2.76,1.62-.93,2.48-.96.96-.03,1.89-.67,2.86-.42l-2.48-1.42c2.69-3.24,8.75-.23,11.48-2.3.34-.26.49.18.38-1-.71-.04-2.93-.42-3.51-.84-.91-.66-1.55-2.45-1.65-2.5-.77-.35-3.34.37-4.24.27-1.12-.12-2.07-.23-3.13-.31-.87-.07-5.76,0-5.94-.41-.09-.2.08-1.22,0-1.42-.04-.09-1.08.65-1.38,0-.02-.05.33-.78.28-.93-.37-1.05-.6,1.65-1.1.94-1.35-1.93,1.11-1.42,1.22-1.45,1.07-.31,1.26-1.5,1.81.04.15-2.51.66-.02.72-.01,1.02.04,2.65-.63,3.42-1.86-1.45-1.59-1.03-.15-1.23-.11-.6.11-1.26,0-1.88.13-.37.07.25,1.58-1.46-.01-.26-.25-.33-1.26-.45-1.37-.2-.19-3.44-.75-4.37-1.48-.07-.05.58-.84-.55-1.88,2.81-1.18,1.81.33,1.93.46.77.81,1.15-.95,1.48-.94.72,0,2.85,1.94,3.49,1.42.03-.02-.23-.85-.14-.96.49-.54,1.05-.31,1.21-.54.15-.22-.03-1.23.04-1.33.15-.25,3.58,3.73,2.73-.1-.11-.49-1.04-.27-.12-1.32,1.26-1.44,3.38-.79,4.83-.94-.15-1.14-3.18-.11-3.03-1.4.01-.13,1.16-1.28,1.3-1.33,1.49-.56,1.8.84,1.91.86,1.78.29,1.03-2.53,1.2-2.85.12-.22,1.84.55,2.34.52,10.21-.7,21.43-4,31.16-3.76,1.18.03,1.88,1.29,2.4,1.71ZM12.26,5.12c-.43-.57-1.93,1.22-2.46.9l1.1.93-1.37.95c1.11-.41,3.28,1.77,4.13,1.19.26-.18,1.08-1.77.84-2.13-.28-.41-1.16.47-1.25.46-1.4-.24,1.43-.98.97-1.88-1.19.68-1.14-.9-1.65,1.41-.07-.41-.2-1.7-.31-1.83ZM21.11,8.84c-.59-1.51-3.13-.64-4.14-.23.45,1.14,2.63.11,2.75.25.08.1.19,2.01.42,1.88.38-.2-.38-2.55.97-1.9ZM152.1,38.14c-.29-.29-2.58.4-1.75,1.9.77,1.38,3.04-.62,1.75-1.9ZM21.1,51.33c-.2-.52-1.76,1.27-1.86,1.3-.62.21-2.74-.69-2.55,1.06.67-.63,5.67.9,4.41-2.36ZM153.5,113.17c-.37-.6-2.35,3.1-2.2,3.3s2.41-.07,2.48-1.19c.15-1.39-.51-.1-.55-.22-.13-.5.4-1.68.27-1.89ZM17.52,127.33c-1.21.32-2.97-1.5-3.58.94,2.29.11.29.49.28.71-.08,1.28,1.13,2.07,1.81,2.07.56,0,.48-1.71.53-1.85.22-.6,1.14-.6.97-1.86ZM21.93,127.81c-.02-.06-.79-.53-.82-.48-.05.07.02,1.69-.42,1.89-.27.12-1.76-1.79-2.61-.47-.13.79.55.25.55.69.03,2.68-1.29-.71-1.66,1.18.39.31,4.53-.17,4.69-.47.02-.04-.26-.72-.19-1.1.09-.53.54-1.05.46-1.25ZM10.35,130.64c-2.27-.54-.94,1.14-1.1,1.41-.08.14-.76-.13-.83,0-.04.08.53.66-.27,1.41l1.93-.22c.79-1.06-.78-.39-.27-1.65.06-.14.8.37.54-.95ZM12,131.11c-1.03-1.4-2.73,3.83,1.1,1.88-2.12-.8-.88-1.58-1.1-1.88ZM18.35,132.06c-1.04.46-2.24-.88-3.13-.8-2.71.24-1.26,3.11-1.01,2.68.05-.09.82-2.84.66-.47,0,.06-.63-.22-.37.94,1.18-.93,3.18-.32,3.86-2.35ZM11.45,134.41c-3.51-.97-4,2.65-.27,1.88-.6-1.44.47-.34.27-1.88ZM159.29,140.55c-.08-.11-1.82.19-1.93.71-.08.38.37.01.55.57.12.38-.07,1.4,0,1.55.56,1.09,1.94-2.04,1.38-2.83Z"/>
  <path class="cls-1" d="M122.89,10.01c1.45.24,3.13,4.1,3.13,6.75,0,2.89,1.69,16.14,1.69,19.76,0,8.19-3.86,11.57-7.23,11.57-2.65,0-4.82-4.1-5.54-6.02-5.3-14.46-17.83-27.47-31.56-27.47-10.12,0-19.28,9.4-19.28,18.55,0,10.84,7.95,18.79,21.68,25.78,30.36,15.42,48.19,28.91,48.19,51.8,0,19.76-13.49,30.84-22.17,36.14-9.4,5.54-25.3,9.64-36.38,9.64-20.48,0-32.29-4.34-37.83-6.51-1.69-.72-5.54-2.89-6.75-5.54-4.1-8.67-4.82-21.2-4.82-26.99,0-4.58,2.41-10.36,6.27-10.36,2.65,0,5.78,2.89,9.16,9.16,8.92,16.38,22.17,28.19,37.11,28.19,8.67,0,19.52-6.02,19.52-17.11,0-7.23.48-15.18-24.1-28.43-31.56-16.87-43.85-29.88-43.85-52.29,0-15.66,11.08-28.43,22.65-34.94,9.16-5.06,20.72-8.19,34.46-8.19s26.26,4.34,35.66,6.51Z"/>
</svg>