<?xml version="1.0" encoding="UTF-8"?>
<svg id="Layer_1" data-name="Layer 1" xmlns="http://www.w3.org/2000/svg" viewBox="0 0 400 100">
  <defs>
    <style>
      .cls-1 {
        fill: #fff;
      }
    </style>
  </defs>
  <path class="cls-1" d="M356.07,58.04c.66,0,1.32,0,1.97,0,3.19.01,6.39-.02,9.58,0,.56,0,1.13,0,1.69,0,1.69.01,3.38-.02,5.07,0,.28,0,.56,0,.85,0,.19,0,.38,0,.56,0s.38,0,.56,0c5.6.06,11.49.35,17.18.46.47,0,.94,0,1.41,0,2.47,1,5.5.68,8.17.91.77.07,1.5.06,1.88.67h.37c.03.13.38.39.28.46-.36-.1-.83.23-.99.23h-4.93v.46h7.18c.1,0,1.5.18,1.55.23.17.15-.28.21-.28.22h-5.07c-1.59,0-3.2,0-4.79,0-3.94,0-7.89,0-11.83,0-.12.38.39.14.5.26.06.06-.22.33-.17.39.11.12.62-.13.5.26-.58.11-1.92-.36-1.69.46.27.17,4.99-.16,5.95-.1.23.01.62.06.53.33-2.68.27-5.44.21-8.17.23l.7-.45h-1.83s.29.45.29.45c-.63-.22-1.28.05-1.84.02s-.37-.45-.61-.48c-.8-.12-5.59-.06-6.3.11-.31.07-.77.29-.83.58l5.07.23-.29.45c3.1-.07,7.58-.89,10.56-.45.49.07.79.24.71.68-.45-.15-1.06.23-1.27.23h-5.21c-.06.24,1.18.56,1.27.57.66.04,3.03-.49,3.16.45.11.8-1.78.92-1.34-.11l-1.4.69c-.09-.1.19-.65-.16-.7-.76-.12-5.36-.06-6.06.12-.42.1-.76.54-1.26.57l-2.94.23c3.99.08,8-.1,11.99,0,2.56.06,5.18.39,7.73.46.56.02,1.13,0,1.69,0,.09,0,.19,0,.28,0,.47,0,.94.01,1.41,0-.03.15.04.33,0,.46-.05.18,0,.2-.28.23v-.45c-.23-.06-.24.22-.28.23-.46.06-1.18,0-1.69,0-1.42-.02-2.81-.23-4.23,0l.29-.45c-1.01-.31-1.05.42-1.53.47-1.72.18-2.63-.45-3.4-.48-.19,0,.01.42-.54.48-2.07.22-4.78-.21-6.92-.02-.07.4.64.21.98.23,2.58.09,5.17.13,7.75.23l-2.25.68c1.73.06,3.49-.07,5.22,0,1.49.05,3.89.12,5.27.29.25.03.85.1.77.4-.77.11-1.95-.15-2.63,0-.2.04-.32.94-.46.17-.47-.49-1.51.2-1.41.75h3.94c.12.59-.11.41-.61.52-2.14.47-4.28-.05-6.3.16-1.39.15.2.48.42.63.18.77.29-.15.41-.15.66,0,2.23.55,2.56.57.14,0,1.48-.53,1.96-.37l-.14.46c.73-.04,1.53.07,2.26,0l.28.11c-.27.44-.8.25-1.12.34-.56.16-1.12.33-1.69.46-.02-.02-.41,0-.56,0-.42,0-3.52.36-3.65.47-.12.1.04.9-.01.9h-4.37s-.44.31-.42.45h2.53s-1.13.46-1.13.46h5.35c.22.59-.68.56-1.12.57-1.76.07-3.47-.5-5.21.35h-15.65c.06.43,1.13.43,1.54.45,4.35.23,8.97-.11,13.23-.01.17,0,.11.39.36.46.36.1.99-.21.93.23h-10.14v.23s3.66.23,3.66.23v.23s-4.79,0-4.79,0v.46h11.41s.66.43.28.46l-26.34-.23,2.66.46c5.99.24,13.3-.38,19.17.21,1.02.1,1.64.68,2.67.69l-2.39.68c-2.83-.5-6.71.08-9.31-.22-.68-.08-1.07-.47-1.68-.49-.53-.02-.25.44-.82.5-2.09.22-4.53-.46-6.79-.25-.42.04-.87.05-.98.46h13.1c.24,0,2.82.45,2.11.91-.83.27-3.23-.38-3.1.45h-.27c-.19-1.26-1.54,0-1.82.02-2.61.27-5.18-.21-7.65-.45-1.97-.19-2.16.39-2.77.45-1.24.13-2.81-.13-4.1-.02l5.22.46c1.75-.1,3.87-.18,5.63-.02.42.04.87.05.98.46-6.57.04-13.15-.04-19.72,0-1.5,0-3.01-.02-4.51,0-3.48.04-6.97,0-10.42.46-1.3-.02-2.63,0-3.94,0-1.49-.01-3.02-.05-4.51,0-.47.02-.94-.03-1.41,0h-11.27c-.57,0-1.3,0-1.97,0-3,0-6.02-.03-9.01,0-.09,0-.19,0-.28,0-3.12.04-5.08-.05-8.17.46-.09.01-.19-.01-.28,0-.78-1.04-1.68-.28-2.4,0-.23.09.07-.42-.54-.48-2.12-.2-5.23.02-7.49.02-.09,0-.19,0-.28,0-1.4,0-2.82-.02-4.23,0-1.81.02-3.56.18-5.35.23-1.55.04-3.19.08-4.79,0-.45-.02-1.17.15-1.41-.23.26-.08,1.61-.26,1.13-.68-.18-.16-4.6-.62-5.35-.69-2.13-.19-2.18.29-3.94.46-1.25.11-1.77-.45-1.87-.47-.3-.05-2.57.02-3.2.01-.19,0-.38,0-.56,0-.25-.24-.91-.18-.27-.56.98-.59,1.16-.1,1.8-.12.08,0,.49-.9,1.29-.46.18.1-.75.81.14.68.66-.8,1.93-.12,2.68-.8l-2.53-.34c.95-.07,2.04.09,2.96,0,.41-.04.87-.17.42-.45-.91.46-2.7-.53-2.81-.45-.04.03.05.3-.06.39-.07.06-.4-.16-.47-.11-.14.09.15.5-.32.4.24-.8-1.97.07-2.82-.23l.56-.45c-.66.16-1.99-.43-2.38-.44-.67,0-2.99.77-3.53-.14-.23-.39,1.28-.4.28-.91-.77-.39-3.11.27-3.95-.34-.73-.53.99-.44,1.13-.45.5-.05.86-.28,1.41,0-.37-1.4,1.96-.19,2.82-.91.09-.07.67-.98.85-1.14h-8.17c-.12-.37.41-.16.47-.27.02-.03.1-.6.07-.62-.31-.22-1.8,0-1.95-.48l3.66-.12c-.89-.72-2.39-.13-3.46-.39-.64-.16-1.03-1.16-2.17-.87.02-.46,1.36,0,.84-.68-.03-.04-.92.1-.56-.57.15-.27,2.97-1.2,3.38-1.6-.33-.16-1.9-.15-1.13-.68.96-.66,2.89.12,3.38-1.48-1.59.05-3.22.26-4.79.45-.27.03-.58-.03-.85,0-.3-.62-1.05-.37-1.57-.67-.28-.16-.63-.89-1.23-1.05l.83-1.92-2.53.23c-.12-.85,1.84-.33,2.25-1.02-1.32.06-1.06-.52-1.13-.57.74-.24,1.48-.21,2.25-.23,2.83-.06,5.68.13,8.45-.34-2.27-.19-4.62-.14-6.91-.12-.48,0-1.25-.15-1.55.23l-.56-.45,3.23-.46-.13-.91,13.8-.69-2.4-.23c-2.55.36-5.1.18-7.67.41-.76.07-.78.17-.35-.4.08-.03.17-.17.28-.23,1.78-.3,3.55-.2,5.35-.23.19,0,.38,0,.56,0,.47-.01.94.01,1.41,0,.28,0,.56,0,.85,0,2.42-.08,5.01-.39,7.32-.46,1.03-.03,2.07.03,3.1,0,30.77-.85,61.57-1.04,92.39-.91ZM256.35,60.54h-3.24s-3.24.45-3.24.45h3.24s3.24-.45,3.24-.45ZM398.04,60.77c-.1-.07-2.23-.02-2.68,0-.34.01-1.05-.17-.98.23.72-.01,1.4.22,2.12.24.15,0,2.26,0,1.54-.47ZM352.97,63.04c-.15-1.23-2.62-.5-3.66-.68l1.6.6,2.06.08ZM358.32,62.82c-1.31-.18-2.43-.63-3.82-.48l-1.25.7c1.36-.11,2.73.02,4.08.01.33,0,1.06.15.99-.23ZM353.53,65.32c-.26.17-5.59-.13-6.48,0v.23c.44-.14,1.06.23,1.27.23h6.62c.24-.7-.81-.33-1.27-.91-.29,0-.08.42-.14.46ZM371.56,65.78c-1.19.02-2.27-.47-3.38.11.77.58,3.29,1.08,3.38-.11ZM319.87,66.23c-1.5.1-3.13-.07-4.65,0v.23h6.2c.17-.97-.99-.27-1.55-.23ZM362.83,77.16h-4.51v.23h4.51v-.23ZM374.1,77.16c-.86.06-1.85-.09-2.68,0-.41.04-.87.17-.42.45.86-.06,1.85.09,2.68,0,.41-.04.87-.17.42-.45ZM356.35,78.98c.02-.15-.37-.46-.42-.46h-5.35c-.25,0-1.02.42-1.55.23v.23s7.32,0,7.32,0ZM345.93,79.89c-.82.31-2.26-.24-2.81.45.86.18,2.74.69,2.81-.45ZM348.69,79.95c-.4-.23-1.63.02-2.19-.06-.23.59.74.65,1.26.68,1.43.1,2.87-.02,4.23,0,1.05.02,2.02.43,3.24,0-.19-.44-1.41-.66-1.87-.68-.53-.03-.23.45-.79.48-1.01.06-2.53-.58-3.08-.5-.24.04-.15.44-.18.46-.57.35-.55-.35-.61-.38Z"/>
  <g>
    <g>
      <path class="cls-1" d="M26.67,6.88c.36.06.78,1.02.78,1.68,0,.72.42,4.03.42,4.93,0,2.04-.96,2.89-1.8,2.89-.66,0-1.2-1.02-1.38-1.5-1.32-3.61-4.45-6.85-7.88-6.85-2.53,0-4.81,2.35-4.81,4.63,0,2.71,1.98,4.69,5.41,6.43,7.58,3.85,12.03,7.22,12.03,12.93,0,4.93-3.37,7.7-5.53,9.02-2.34,1.38-6.31,2.41-9.08,2.41-5.11,0-8.06-1.08-9.44-1.62-.42-.18-1.38-.72-1.68-1.38-1.02-2.16-1.2-5.29-1.2-6.73,0-1.14.6-2.59,1.56-2.59.66,0,1.44.72,2.28,2.29,2.22,4.09,5.53,7.03,9.26,7.03,2.16,0,4.87-1.5,4.87-4.27,0-1.8.12-3.79-6.01-7.09-7.88-4.21-10.94-7.46-10.94-13.05,0-3.91,2.77-7.1,5.65-8.72,2.29-1.26,5.17-2.04,8.6-2.04s6.55,1.08,8.9,1.62Z"/>
      <path class="cls-1" d="M52.79,18.72c.6.6.9,1.8.9,2.16,0,2.28-1.32,4.09-2.83,4.09-.48,0-1.44-.72-2.34-1.56-1.68-1.56-3.49-3.07-5.41-3.07-1.44,0-2.53.96-2.83,1.26-.66.66-1.62,2.34-1.62,5.77,0,6.01,3.79,9.62,8.18,9.62,1.98,0,4.45-.9,6.01-2.1.18-.18,1.14,0,1.14.96s-.9,2.22-1.5,3.07c-1.86,2.59-5.41,4.15-9.2,4.15-3.31,0-6.13-.9-8.54-3.01-1.56-1.32-3.91-4.75-3.91-9.14,0-6.07,3.31-9.56,6.55-11.48,3.07-1.86,6.37-2.53,8.24-2.53,4.21,0,6.67,1.26,7.15,1.8Z"/>
      <path class="cls-1" d="M57.1,19.08c1.8-.54,5.23-1.5,6.49-2.16.78-.36,1.32-.54,1.92-.54.12,0,.78.9.78,1.2l.12,2.95c0,.18.36.54.54.18,1.74-1.92,3.85-3.79,6.19-3.79,1.98,0,4.39,1.5,4.39,2.77s-1.5,3.55-2.95,4.69c-.66.6-1.32.96-1.74.96-.18,0-.78-.18-1.38-.6-.36-.36-2.04-1.56-2.77-1.56-.3,0-1.14.12-1.32.24-.3.24-.6.54-.6.96,0,.6,0,9.44.06,11.54.06,2.41.6,3.01,2.83,3.73.84.3,2.1.96,2.1,1.68,0,.9-1.44,1.32-2.16,1.32-1.86,0-5.77-.3-7.52-.3-2.1,0-3.49.18-5.17.18-1.08,0-2.28-.42-2.28-1.2,0-.72.48-1.2,1.74-1.74,1.86-.78,2.04-.96,2.16-4.75.06-3.37.06-6.67.06-9.86,0-.42-.3-.96-1.38-1.98-.84-.78-1.5-1.5-1.5-1.92,0-.9.96-1.86,1.38-1.98Z"/>
      <path class="cls-1" d="M97.86,36.76c.24-.12.66-.36.84-2.34.18-1.86.18-8.84.18-11.42,0-.54-.42-1.68-.84-1.86-.54-.24-1.86-.6-2.41-.84-.6-.24-1.02-.84-1.02-1.14,0-.48.9-1.5,2.28-1.5h3.55c.96,0,5.17-.18,5.59-.18.3,0,.9.72.9,1.44,0,2.59-.06,14.79.06,17.44.06,1.98.72,2.28,1.02,2.28.42,0,2.53-.18,3.13-.24.36-.06.66.66.66.84,0,1.86-.78,2.4-1.56,2.52-1.5.18-5.11.36-6.19.66-1.68.42-2.53.72-3.67.72-.42,0-1.2-.78-1.2-1.56,0-.42-.12-1.14-.18-1.92,0-.18-.42-.48-.54-.36-2.34,1.92-5.47,3.79-9.08,3.79-1.92,0-4.21-1.02-5.41-2.35-.6-.6-1.32-2.41-1.32-3.55,0-1.38.06-3.13.06-13.71,0-1.86-.36-1.98-1.86-2.77-.72-.36-1.5-1.14-1.5-1.86,0-.66,1.14-1.2,2.1-1.2,1.32,0,8.66-.18,9.08-.18.24,0,.6.66.6,1.74,0,2.95-.3,11.42-.12,14.31.12,2.29.66,3.19,1.2,3.55.6.42,1.38.6,2.53.6,1.2,0,2.47-.54,3.13-.9Z"/>
      <path class="cls-1" d="M115.54,19.81c1.32-.54,5.53-1.86,7.52-3.13.42-.3.66-.36.9-.36.66,0,1.2.66,1.2.78v2.22c0,.54.3.54.6.36,1.08-.78,4.09-2.77,7.46-2.77,3.67,0,5.71,1.92,6.61,3.31.12.18.54.3.84.18,1.86-1.26,2.71-1.92,3.97-2.53,1.26-.6,2.59-.96,4.03-.96,5.65,0,8.12,4.15,8.48,9.44.24,3.91.36,9.56.36,11.06,0,1.02.78,1.8,1.8,2.16.78.3,1.74.78,1.74,1.56,0,.72-1.2,1.32-2.16,1.32-1.26,0-4.09-.12-5.47-.12s-4.03.12-5.41.12c-1.5,0-2.04-.84-2.04-1.32,0-.24.42-.96,1.56-1.5,1.26-.6,1.56-1.08,1.56-2.83,0-2.89-.06-7.03-.06-9.08,0-2.34-.24-3.73-1.08-4.45-.72-.6-1.62-1.14-3.43-1.14-.66,0-2.4.36-2.89.72-.24.18-.48.54-.48,1.14,0,3.13.18,11.48.3,12.87.06,1.38.48,2.35,1.44,2.71,1.2.42,1.8.84,1.8,1.5,0,.78-.96,1.38-1.92,1.38-1.56,0-4.75-.12-6.31-.12-1.32,0-3.13.12-4.45.12s-2.28-.72-2.28-1.38.96-1.14,1.92-1.44c1.32-.42,1.38-.48,1.44-3.31l.24-10.22c.06-1.62-.42-2.28-.78-2.77-.84-1.08-2.28-1.5-3.97-1.5-.84,0-1.8.12-2.53.66-.24.18-.66.96-.66,1.38,0,10.58,0,11.42.12,12.99.12,1.68.18,2.04,1.32,2.65,1.14.6,1.74.96,1.74,1.74,0,.6-.72,1.26-1.68,1.26-1.44,0-4.63-.18-6.43-.18-1.38,0-4.15.24-5.53.24s-2.16-.66-2.16-1.26c0-.54.66-1.14,1.86-1.56,1.68-.6,2.1-1.38,2.16-3.31.12-2.22.18-6.19.18-11.72,0-.72.12-.78-.84-1.5-1.26-.96-1.68-1.44-1.68-1.68,0-.9.6-1.5,1.08-1.74Z"/>
      <path class="cls-1" d="M177.07,17.34c.18,0,.84.3.96.66.18.6.12,1.98.12,2.28s-.42,1.56-1.44,1.56c-2.22,0-4.45.06-5.83.06-.12,0-.48.54-.48.84l-.12,9.8c-.06,2.34.3,3.13,1.02,3.97.84.9,1.56,1.08,2.52,1.08.72,0,1.68-.06,2.52-.36.54-.18.9-.42,1.26-.42.24,0,.78.48.78.96,0,.96-.24,1.74-2.4,3.37-1.56,1.2-4.75,1.92-6.25,1.92-2.34,0-5.29-.54-7.03-3.13-.48-.72-.84-2.1-.84-4.27,0-4.21.24-7.15.24-12.93,0-.36-.12-.78-1.68-1.14-.96-.24-1.56-1.44-1.56-1.92s.66-.9,1.26-1.26c1.62-1.08,4.39-3.13,5.89-4.75.66-.72,2.77-1.44,3.31-1.44.36,0,.96.72.96,1.26v3.37c0,.24.3.78.72.78.66,0,4.69-.3,6.07-.3Z"/>
      <path class="cls-1" d="M181.9,19.08c1.8-.54,5.23-1.5,6.49-2.16.78-.36,1.32-.54,1.92-.54.12,0,.78.9.78,1.2l.12,2.95c0,.18.36.54.54.18,1.74-1.92,3.85-3.79,6.19-3.79,1.98,0,4.39,1.5,4.39,2.77s-1.5,3.55-2.95,4.69c-.66.6-1.32.96-1.74.96-.18,0-.78-.18-1.38-.6-.36-.36-2.04-1.56-2.77-1.56-.3,0-1.14.12-1.32.24-.3.24-.6.54-.6.96,0,.6,0,9.44.06,11.54.06,2.41.6,3.01,2.83,3.73.84.3,2.1.96,2.1,1.68,0,.9-1.44,1.32-2.16,1.32-1.86,0-5.77-.3-7.52-.3-2.11,0-3.49.18-5.17.18-1.08,0-2.29-.42-2.29-1.2,0-.72.48-1.2,1.74-1.74,1.86-.78,2.04-.96,2.16-4.75.06-3.37.06-6.67.06-9.86,0-.42-.3-.96-1.38-1.98-.84-.78-1.5-1.5-1.5-1.92,0-.9.96-1.86,1.38-1.98Z"/>
      <path class="cls-1" d="M222.67,36.76c.24-.12.66-.36.84-2.34.18-1.86.18-8.84.18-11.42,0-.54-.42-1.68-.84-1.86-.54-.24-1.86-.6-2.4-.84-.6-.24-1.02-.84-1.02-1.14,0-.48.9-1.5,2.29-1.5h3.55c.96,0,5.17-.18,5.59-.18.3,0,.9.72.9,1.44,0,2.59-.06,14.79.06,17.44.06,1.98.72,2.28,1.02,2.28.42,0,2.52-.18,3.13-.24.36-.06.66.66.66.84,0,1.86-.78,2.4-1.56,2.52-1.5.18-5.11.36-6.19.66-1.68.42-2.53.72-3.67.72-.42,0-1.2-.78-1.2-1.56,0-.42-.12-1.14-.18-1.92,0-.18-.42-.48-.54-.36-2.34,1.92-5.47,3.79-9.08,3.79-1.92,0-4.21-1.02-5.41-2.35-.6-.6-1.32-2.41-1.32-3.55,0-1.38.06-3.13.06-13.71,0-1.86-.36-1.98-1.86-2.77-.72-.36-1.5-1.14-1.5-1.86,0-.66,1.14-1.2,2.1-1.2,1.32,0,8.66-.18,9.08-.18.24,0,.6.66.6,1.74,0,2.95-.3,11.42-.12,14.31.12,2.29.66,3.19,1.2,3.55.6.42,1.38.6,2.52.6,1.2,0,2.47-.54,3.13-.9Z"/>
      <path class="cls-1" d="M239.32,5.2c1.62-.42,4.87-1.38,6.61-1.98,1.26-.48,1.86-.54,2.59-.54.54,0,1.02,1.44,1.02,2.59,0,4.75-.06,20.44-.06,26.03,0,1.26,0,3.91.12,4.93,0,1.62.36,2.71,2.34,3.49,1.26.48,1.68,1.26,1.68,1.86,0,.48-.48.96-1.74.96-2.53,0-4.39-.18-5.95-.18-2.34,0-4.75.3-7.33.3-1.08,0-1.8-.54-1.8-1.08,0-.6.72-1.32,1.8-1.74,1.86-.78,2.29-1.56,2.41-2.77.18-.96.24-4.87.24-6.01,0-8.12-.12-19.12-.24-20.86,0-.6-.06-1.2-1.68-1.98-1.08-.6-1.56-.9-1.56-1.32,0-1.02,1.14-1.56,1.56-1.68Z"/>
      <path class="cls-1" d="M275.1,21.31c.78,1.32,1.26,2.89,1.26,4.57,0,.66-.9,2.16-1.74,2.16-.42,0-10.76.18-11.9.18-.54,0-.96.12-1.14.6-.24.42-.18.48-.18.78,0,4.39,3.07,7.64,8.18,7.64,2.04,0,4.33-.96,5.89-1.92.36-.24.96.36.96.72,0,1.5-.84,2.59-1.2,2.95-2.7,2.89-6.37,4.09-9.68,4.09-7.64,0-12.45-5.29-12.45-12.87,0-5.41,3.31-9.38,6.37-11.3,1.68-1.08,4.33-1.98,6.97-1.98,3.67,0,6.97,1.68,8.66,4.39ZM261.81,24.38c0,.24-.06.84.3.9.54.12,1.5.18,3.37.18s3.67-.12,3.67-2.16c0-1.08-.6-3.55-3.31-3.55-2.04,0-4.03,2.53-4.03,4.63Z"/>
      <path class="cls-1" d="M293.24,17.34c.78.24,1.8.42,2.4.6.36.12,1.2,1.2,1.2,1.44,0,.84.18,2.16.18,3.61,0,1.08-.66,1.86-1.08,1.86s-1.32-.12-2.34-1.62c-1.44-2.1-3.07-3.37-4.63-3.37-1.32,0-2.34.96-2.34,2.41s.72,2.41,5.47,4.81c4.57,2.28,6.19,4.81,6.19,7.76,0,3.79-2.7,6.07-5.29,7.09-1.98.84-4.39,1.14-6.13,1.14-4.15,0-6.07-.84-6.85-1.5-.66-.6-1.38-4.69-1.38-5.77s.78-1.56,1.32-1.56c.42,0,1.26.42,2.1,1.5,2.04,2.77,4.33,4.27,6.19,4.27s2.11-1.38,2.11-2.22-1.02-2.16-2.16-2.77c-1.8-.96-1.92-1.32-3.85-2.41-2.34-1.32-4.99-3.79-4.99-7.34s2.22-5.77,4.03-6.85c1.5-.9,4.33-1.5,5.77-1.5s3.07.12,4.09.42Z"/>
      <path class="cls-1" d="M321.26,18.72c.6.6.9,1.8.9,2.16,0,2.28-1.32,4.09-2.83,4.09-.48,0-1.44-.72-2.34-1.56-1.68-1.56-3.49-3.07-5.41-3.07-1.44,0-2.53.96-2.83,1.26-.66.66-1.62,2.34-1.62,5.77,0,6.01,3.79,9.62,8.18,9.62,1.98,0,4.45-.9,6.01-2.1.18-.18,1.14,0,1.14.96s-.9,2.22-1.5,3.07c-1.86,2.59-5.41,4.15-9.2,4.15-3.31,0-6.13-.9-8.54-3.01-1.56-1.32-3.91-4.75-3.91-9.14,0-6.07,3.31-9.56,6.55-11.48,3.07-1.86,6.37-2.53,8.24-2.53,4.21,0,6.67,1.26,7.15,1.8Z"/>
      <path class="cls-1" d="M346.07,21.31c.78,1.32,1.26,2.89,1.26,4.57,0,.66-.9,2.16-1.74,2.16-.42,0-10.76.18-11.9.18-.54,0-.96.12-1.14.6-.24.42-.18.48-.18.78,0,4.39,3.07,7.64,8.18,7.64,2.04,0,4.33-.96,5.89-1.92.36-.24.96.36.96.72,0,1.5-.84,2.59-1.2,2.95-2.7,2.89-6.37,4.09-9.68,4.09-7.64,0-12.45-5.29-12.45-12.87,0-5.41,3.31-9.38,6.37-11.3,1.68-1.08,4.33-1.98,6.97-1.98,3.67,0,6.97,1.68,8.66,4.39ZM332.78,24.38c0,.24-.06.84.3.9.54.12,1.5.18,3.37.18s3.67-.12,3.67-2.16c0-1.08-.6-3.55-3.31-3.55-2.04,0-4.03,2.53-4.03,4.63Z"/>
      <path class="cls-1" d="M350.64,18.78c1.2-.42,5.05-1.32,6.25-1.92.72-.36,1.98-.66,2.1-.66.18,0,1.02.6,1.02,1.08,0,.3-.24,1.8-.24,2.41,0,.42.3.36.48.24,1.92-1.32,4.75-3.01,8.48-3.01,3.49,0,5.47,2.77,5.71,3.07.96,1.38,2.04,4.27,2.04,8.42,0,2.77,0,4.93.12,7.64.12,2.47.3,2.71,1.8,3.49.96.48,1.62,1.14,1.62,1.68,0,1.14-1.38,1.32-2.16,1.32s-3.97-.18-5.77-.18-4.15.18-4.87.18c-1.44,0-2.1-.54-2.1-1.2,0-.36.24-1.02,1.2-1.38,1.38-.54,1.68-1.26,1.74-2.77.06-2.95.06-5.29.06-7.94,0-4.51-.42-5.35-1.02-6.13-.6-.78-1.86-1.14-2.95-1.14-1.26,0-2.41.24-3.31.6-.18.06-.66.66-.66,1.38v12.99c0,1.2.24,2.04,1.56,2.59,1.44.54,1.62,1.32,1.62,1.56,0,.96-1.08,1.44-2.16,1.44-1.98,0-3.85-.18-5.29-.18-1.86,0-5.59.18-6.55.18-1.38,0-2.04-.42-2.04-1.02,0-.78.72-1.38,1.32-1.62,2.83-1.14,2.89-1.32,3.07-3.37.24-2.41.3-6.85.3-11.78,0-.96-.24-1.38-1.86-2.83-.66-.6-.96-1.02-.96-1.26,0-.42.48-1.5,1.44-1.86Z"/>
      <path class="cls-1" d="M396.18,17.34c.18,0,.84.3.96.66.18.6.12,1.98.12,2.28s-.42,1.56-1.44,1.56c-2.22,0-4.45.06-5.83.06-.12,0-.48.54-.48.84l-.12,9.8c-.06,2.34.3,3.13,1.02,3.97.84.9,1.56,1.08,2.52,1.08.72,0,1.68-.06,2.52-.36.54-.18.9-.42,1.26-.42.24,0,.78.48.78.96,0,.96-.24,1.74-2.4,3.37-1.56,1.2-4.75,1.92-6.25,1.92-2.34,0-5.29-.54-7.03-3.13-.48-.72-.84-2.1-.84-4.27,0-4.21.24-7.15.24-12.93,0-.36-.12-.78-1.68-1.14-.96-.24-1.56-1.44-1.56-1.92s.66-.9,1.26-1.26c1.62-1.08,4.39-3.13,5.89-4.75.66-.72,2.77-1.44,3.31-1.44.36,0,.96.72.96,1.26v3.37c0,.24.3.78.72.78.66,0,4.69-.3,6.07-.3Z"/>
    </g>
    <g>
      <path class="cls-1" d="M7.57,47.24c1.5,0,11,.24,11.36.24.3,0,1.14,1.02,1.2,1.14.24.84,1.02,2.29,2.28,5.23,1.32,3.07,5.95,13.35,7.34,15.03,0,.06.54.3.72-.12,1.98-4.27,4.63-9.92,6.61-14.49,1.14-2.65,1.56-4.33,2.04-5.65.12-.36.78-1.14,1.14-1.14,1.02,0,9.68-.36,11.6-.36.6,0,1.98.6,1.98,1.44,0,.72-.54,1.08-1.74,1.44-3.85,1.14-3.97,1.44-3.97,3.01,0,8.54.42,15.51.66,21.77.18,4.93,1.44,5.29,3.49,5.77,1.86.42,2.47,1.08,2.47,1.8,0,.6-1.14,1.44-2.41,1.44-.72,0-7.46-.36-10.34-.36-2.71,0-4.21.24-5.65.24s-1.92-1.26-1.92-1.68c0-.48.96-.96,1.26-1.08,2.95-1.02,3.49-1.74,3.55-5.05.06-1.56-.06-12.51.12-18.28,0-.3-.42-.24-.72.3-.78,1.44-6.01,14.13-7.28,17.14-.66,1.56-1.62,4.45-2.47,6.49-.6,1.38-1.68,2.34-3.01,2.34-.54,0-1.44-1.02-1.74-2.04-.9-2.95-2.1-5.83-2.65-7.4-2.65-7.46-5.05-12.03-6.55-15.69-.24-.6-.72-.48-.72-.06-.48,6.91-.78,13.83-.78,16.9,0,3.61.42,3.79,3.61,5.05,1.32.54,1.92.9,1.92,1.68,0,.66-.84,1.38-2.22,1.38-.84,0-3.01-.24-4.75-.24-1.92,0-6.31.36-7.1.36-1.14,0-2.22-.6-2.22-1.38,0-.54.54-1.14,1.98-1.62,3.01-.96,3.97-2.16,4.39-4.69.72-4.15,2.1-18.16,2.22-21.28.12-3.25-.78-3.67-3.79-4.51-1.5-.42-2.16-.9-2.16-1.38,0-.66.9-1.68,2.22-1.68Z"/>
      <path class="cls-1" d="M75.25,61.31c1.14,1.2,1.8,4.15,1.8,4.99,0,2.28-.24,3.49-.24,10.22,0,1.68,1.02,2.41,2.04,2.41.36,0,1.32-.12,1.86-.36.18-.06.42.48.42.78,0,1.08-.66,2.52-.9,2.71-1.68,1.74-3.25,2.16-5.35,2.16-1.98,0-4.39-.78-5.59-3.67,0-.06-.6-.24-.72-.12-.96.72-2.04,1.62-3.49,2.53-1.02.66-2.65,1.02-3.43,1.02-2.1,0-6.55-1.86-6.55-7.46,0-1.32.66-2.65,1.08-3.19.54-.72,2.16-1.38,2.47-1.44,4.03-.96,7.76-1.92,9.8-2.89.42-.18.84-1.02.84-1.08v-2.65c0-.3-.06-.72-.18-1.08-.66-1.68-2.22-2.77-3.79-2.77-.96,0-1.68.6-1.86,1.02-.18.48-.42,2.28-.6,3.67-.06.42-.54,1.02-.78,1.26-.3.3-1.14.78-1.5.78-1.5,0-3.67-.24-4.45-.72-.24-.18-.72-1.02-.72-1.38,0-1.56,2.77-3.79,5.29-5.41,2.22-1.44,5.23-2.65,7.28-2.65,2.59,0,5.11,1.02,7.28,3.31ZM68.46,77.61c.18-.18.36-.72.42-1.68l.18-3.49c0-.24-.3-.42-.48-.42-1.26.24-3.01.72-4.15,1.14-1.32.48-1.68,1.56-1.68,2.65,0,1.8,1.56,2.89,2.95,2.89.72,0,1.86-.24,2.77-1.08Z"/>
      <path class="cls-1" d="M100.41,58.91c.78.24,1.8.36,2.41.36.72,0,5.29-.12,5.65-.12.9,0,1.14,2.16,1.14,2.95,0,.48-.54,1.32-.72,1.32-1.32,0-3.31-.3-4.63-.36.66,1.08.96,2.47.96,3.85,0,2.34-.84,4.21-3.13,6.07-1.86,1.5-5.17,2.41-7.64,2.41-.36,0-1.98-.12-2.22-.18-.18,0-.54.18-.66.3-.24.18-.36.54-.36.96,0,1.26,2.34,1.8,2.65,1.8,1.98.06,7.7.24,9.5.36,1.02.06,2.1.42,3.49,1.56,1.26.96,2.65,3.25,2.65,5.47,0,4.15-3.55,7.52-5.71,8.84-3.07,1.8-5.71,2.83-10.34,2.83-5.35,0-11.36-2.47-11.36-7.34,0-1.2,1.32-2.95,2.04-3.43.48-.36,2.22-.96,2.83-1.26.3-.18.12-.66-.06-.72-.72-.18-1.02-.42-1.56-.72-1.44-.9-2.22-2.65-2.22-4.69,0-.3.3-.72.36-.72,1.56-.66,4.15-2.41,4.75-3.13.18-.18.18-.66-.06-.84-2.47-1.38-4.69-3.43-4.69-7.52,0-3.19,1.62-5.17,3.55-6.67,1.32-1.02,4.87-2.28,7.28-2.28,2.59,0,5.17.6,6.13.9ZM101.37,92.64c1.14-.84,1.98-1.86,1.98-3.31,0-2.04-2.1-2.83-3.61-3.13-.96-.24-3.49-.42-6.01-.42-1.32,0-3.19.3-3.55.48-.66.48-1.26,1.26-1.26,2.16,0,3.19,3.19,5.23,8.06,5.23.78,0,3.55-.42,4.39-1.02ZM91.03,66.18c0,4.21,1.92,6.49,4.09,6.49.84,0,1.74-.78,1.98-1.14.3-.42.9-3.01.9-4.75,0-4.33-2.1-6.07-3.61-6.07-2.34,0-3.37,2.47-3.37,5.47Z"/>
      <path class="cls-1" d="M130.27,61.31c1.14,1.2,1.8,4.15,1.8,4.99,0,2.28-.24,3.49-.24,10.22,0,1.68,1.02,2.41,2.04,2.41.36,0,1.32-.12,1.86-.36.18-.06.42.48.42.78,0,1.08-.66,2.52-.9,2.71-1.68,1.74-3.25,2.16-5.35,2.16-1.98,0-4.39-.78-5.59-3.67,0-.06-.6-.24-.72-.12-.96.72-2.04,1.62-3.49,2.53-1.02.66-2.65,1.02-3.43,1.02-2.1,0-6.55-1.86-6.55-7.46,0-1.32.66-2.65,1.08-3.19.54-.72,2.16-1.38,2.47-1.44,4.03-.96,7.76-1.92,9.8-2.89.42-.18.84-1.02.84-1.08v-2.65c0-.3-.06-.72-.18-1.08-.66-1.68-2.22-2.77-3.79-2.77-.96,0-1.68.6-1.86,1.02-.18.48-.42,2.28-.6,3.67-.06.42-.54,1.02-.78,1.26-.3.3-1.14.78-1.5.78-1.5,0-3.67-.24-4.45-.72-.24-.18-.72-1.02-.72-1.38,0-1.56,2.77-3.79,5.29-5.41,2.22-1.44,5.23-2.65,7.27-2.65,2.59,0,5.11,1.02,7.28,3.31ZM123.48,77.61c.18-.18.36-.72.42-1.68l.18-3.49c0-.24-.3-.42-.48-.42-1.26.24-3.01.72-4.15,1.14-1.32.48-1.68,1.56-1.68,2.65,0,1.8,1.56,2.89,2.95,2.89.72,0,1.86-.24,2.77-1.08Z"/>
      <path class="cls-1" d="M157.97,58.43c.3,0,.6.3.72.42.36.3,0,1.68-.24,2.16-.48.66-1.74,2.71-2.83,4.57-3.13,5.35-6.31,11.18-7.4,13.65,0,.06,0,.6.24.72.84.42,2.29.72,3.13.72.78,0,3.43-.96,6.01-4.09.78-.96,1.5-1.56,1.8-1.56.72,0,1.38,1.14,1.08,2.04-.42.96-1.14,3.79-1.62,5.47-.18.72-1.08,1.08-1.32,1.08-4.63,0-6.43-.18-11.06-.18-2.77,0-7.82.3-8.54.3s-1.32-.72-1.32-1.62c0-.18,1.44-2.59,2.47-4.03,2.28-3.13,7.22-12.69,8.78-15.75.12-.18-.18-.54-.3-.6-1.08-.24-3.19-.3-4.03-.12-.3.06-2.41,1.38-4.21,3.43-.6.66-1.26,1.38-1.56,1.38-.84,0-1.32-.96-1.32-1.44,0-.42.6-2.47.9-3.43.42-1.14.78-2.95.84-3.37.06-.18.12-.36.78-.72.12-.12.54-.12.6-.06.84.42,3.07,1.08,3.61,1.14.72.06,5.47.18,7.76.18.96,0,6.25-.3,7.03-.3Z"/>
      <path class="cls-1" d="M163.42,60.47c3.01-1.08,8.24-2.65,9.26-2.65.3,0,.78,1.08.78,2.22v10.16c.06,7.88.12,7.7.18,8.24.18,1.14.72,1.8,2.16,2.34.84.3,1.74.9,1.74,1.68,0,.54-.66,1.14-2.16,1.14-1.26,0-4.57-.18-5.89-.18-3.07,0-5.95.24-6.79.24-.96,0-2.29-.3-2.29-1.14,0-.78,1.14-1.44,1.56-1.56,2.65-.96,2.7-1.2,2.95-3.43.12-1.26.3-5.95.3-9.38,0-1.2-.06-2.65-.12-3.01,0-.18-.12-.78-1.62-1.98-.36-.3-1.08-1.02-1.08-1.44s.78-1.2,1.02-1.26ZM172.08,46.7c1.08,1.14,1.44,2.83,1.44,3.43,0,3.61-3.13,4.75-4.69,4.75-1.38,0-2.95-.72-3.79-2.04-.48-.66-.72-1.38-.72-2.41,0-2.77,1.98-4.87,5.05-4.87,1.2,0,2.04.48,2.7,1.14Z"/>
      <path class="cls-1" d="M182.48,59.87c1.2-.42,5.05-1.32,6.25-1.92.72-.36,1.98-.66,2.1-.66.18,0,1.02.6,1.02,1.08,0,.3-.24,1.8-.24,2.41,0,.42.3.36.48.24,1.92-1.32,4.75-3.01,8.48-3.01,3.49,0,5.47,2.77,5.71,3.07.96,1.38,2.04,4.27,2.04,8.42,0,2.77,0,4.93.12,7.64.12,2.47.3,2.71,1.8,3.49.96.48,1.62,1.14,1.62,1.68,0,1.14-1.38,1.32-2.16,1.32s-3.97-.18-5.77-.18-4.15.18-4.87.18c-1.44,0-2.1-.54-2.1-1.2,0-.36.24-1.02,1.2-1.38,1.38-.54,1.68-1.26,1.74-2.77.06-2.95.06-5.29.06-7.94,0-4.51-.42-5.35-1.02-6.13-.6-.78-1.86-1.14-2.95-1.14-1.26,0-2.41.24-3.31.6-.18.06-.66.66-.66,1.38v12.99c0,1.2.24,2.04,1.56,2.59,1.44.54,1.62,1.32,1.62,1.56,0,.96-1.08,1.44-2.16,1.44-1.98,0-3.85-.18-5.29-.18-1.86,0-5.59.18-6.55.18-1.38,0-2.04-.42-2.04-1.02,0-.78.72-1.38,1.32-1.62,2.83-1.14,2.89-1.32,3.07-3.37.24-2.41.3-6.85.3-11.78,0-.96-.24-1.38-1.86-2.83-.66-.6-.96-1.02-.96-1.26,0-.42.48-1.5,1.44-1.86Z"/>
      <path class="cls-1" d="M232.77,62.4c.78,1.32,1.26,2.89,1.26,4.57,0,.66-.9,2.16-1.74,2.16-.42,0-10.76.18-11.91.18-.54,0-.96.12-1.14.6-.24.42-.18.48-.18.78,0,4.39,3.07,7.64,8.18,7.64,2.04,0,4.33-.96,5.89-1.92.36-.24.96.36.96.72,0,1.5-.84,2.59-1.2,2.95-2.71,2.89-6.37,4.09-9.68,4.09-7.64,0-12.45-5.29-12.45-12.87,0-5.41,3.31-9.38,6.37-11.3,1.68-1.08,4.33-1.98,6.97-1.98,3.67,0,6.97,1.68,8.66,4.39ZM219.48,65.46c0,.24-.06.84.3.9.54.12,1.5.18,3.37.18s3.67-.12,3.67-2.16c0-1.08-.6-3.55-3.31-3.55-2.04,0-4.03,2.53-4.03,4.63Z"/>
    </g>
  </g>
</svg>